<mxfile host="app.diagrams.net" agent="Mozilla/5.0 (Windows NT 10.0; Win64; x64) AppleWebKit/537.36 (KHTML, like Gecko) Chrome/130.0.0.0 Safari/537.36 Edg/130.0.0.0" version="28.1.2">
  <diagram name="第 1 页" id="etHUp1x-Wb2BwibgCC2L">
    <mxGraphModel dx="1044" dy="1034" grid="1" gridSize="10" guides="1" tooltips="1" connect="1" arrows="1" fold="1" page="1" pageScale="1" pageWidth="600" pageHeight="350" math="0" shadow="0">
      <root>
        <mxCell id="0" />
        <mxCell id="1" parent="0" />
        <mxCell id="F3seQY0APc_oTYDWwXX8-1" value="" style="shape=singleArrow;whiteSpace=wrap;html=1;arrowWidth=0.4567254057704057;arrowSize=0.2663211866988104;rotation=-15;strokeWidth=2;" vertex="1" parent="1">
          <mxGeometry x="485" y="471" width="201.51" height="46.12" as="geometry" />
        </mxCell>
        <mxCell id="F3seQY0APc_oTYDWwXX8-2" style="rounded=0;orthogonalLoop=1;jettySize=auto;html=1;exitX=1;exitY=0.25;exitDx=0;exitDy=0;entryX=0.75;entryY=0;entryDx=0;entryDy=0;strokeWidth=2;" edge="1" parent="1" source="F3seQY0APc_oTYDWwXX8-3" target="F3seQY0APc_oTYDWwXX8-72">
          <mxGeometry relative="1" as="geometry">
            <mxPoint x="189.8566017177984" y="136.39339828220182" as="targetPoint" />
          </mxGeometry>
        </mxCell>
        <mxCell id="F3seQY0APc_oTYDWwXX8-3" value="" style="rounded=0;whiteSpace=wrap;html=1;fillColor=light-dark(#83c2fd, #121212);container=0;rotation=90;" vertex="1" parent="1">
          <mxGeometry x="197.25" y="59" width="40" height="46" as="geometry" />
        </mxCell>
        <mxCell id="F3seQY0APc_oTYDWwXX8-4" value="" style="triangle;whiteSpace=wrap;html=1;strokeWidth=1;fillColor=light-dark(#f9fafb, #1d293b);strokeColor=#000000;fontFamily=Times New Roman;container=0;rotation=90;" vertex="1" parent="1">
          <mxGeometry x="196.25" y="62" width="10" height="10" as="geometry" />
        </mxCell>
        <mxCell id="F3seQY0APc_oTYDWwXX8-5" value="" style="rounded=0;whiteSpace=wrap;html=1;fillColor=light-dark(#83c2fd, #121212);container=0;rotation=90;" vertex="1" parent="1">
          <mxGeometry x="117.25" y="59" width="40" height="46" as="geometry" />
        </mxCell>
        <mxCell id="F3seQY0APc_oTYDWwXX8-6" value="" style="triangle;whiteSpace=wrap;html=1;strokeWidth=1;fillColor=light-dark(#f9fafb, #1d293b);strokeColor=#000000;fontFamily=Times New Roman;container=0;rotation=90;" vertex="1" parent="1">
          <mxGeometry x="116.25" y="62" width="10" height="10" as="geometry" />
        </mxCell>
        <mxCell id="F3seQY0APc_oTYDWwXX8-7" value="" style="rounded=0;whiteSpace=wrap;html=1;fillColor=light-dark(#dcdee0, #121212);container=0;rotation=90;" vertex="1" parent="1">
          <mxGeometry x="41" y="-52" width="40" height="46" as="geometry" />
        </mxCell>
        <mxCell id="F3seQY0APc_oTYDWwXX8-8" value="" style="triangle;whiteSpace=wrap;html=1;strokeWidth=1;fillColor=light-dark(#f9fafb, #1d293b);strokeColor=#000000;fontFamily=Times New Roman;container=0;rotation=90;" vertex="1" parent="1">
          <mxGeometry x="40" y="-48" width="10" height="10" as="geometry" />
        </mxCell>
        <mxCell id="F3seQY0APc_oTYDWwXX8-11" style="rounded=0;orthogonalLoop=1;jettySize=auto;html=1;exitX=1;exitY=0.25;exitDx=0;exitDy=0;entryX=0.25;entryY=0;entryDx=0;entryDy=0;strokeWidth=2;" edge="1" parent="1" source="F3seQY0APc_oTYDWwXX8-5" target="F3seQY0APc_oTYDWwXX8-72">
          <mxGeometry relative="1" as="geometry">
            <mxPoint x="173.57999999999993" y="133.1099999999999" as="targetPoint" />
          </mxGeometry>
        </mxCell>
        <mxCell id="F3seQY0APc_oTYDWwXX8-12" style="edgeStyle=orthogonalEdgeStyle;rounded=0;orthogonalLoop=1;jettySize=auto;html=1;entryX=0;entryY=0.25;entryDx=0;entryDy=0;strokeWidth=2;exitX=0.5;exitY=1;exitDx=0;exitDy=0;" edge="1" parent="1" source="F3seQY0APc_oTYDWwXX8-75" target="F3seQY0APc_oTYDWwXX8-16">
          <mxGeometry relative="1" as="geometry">
            <mxPoint x="113" y="296" as="targetPoint" />
            <mxPoint x="113" y="266" as="sourcePoint" />
          </mxGeometry>
        </mxCell>
        <mxCell id="F3seQY0APc_oTYDWwXX8-14" style="rounded=0;orthogonalLoop=1;jettySize=auto;html=1;exitX=1;exitY=0.25;exitDx=0;exitDy=0;entryX=0.25;entryY=0;entryDx=0;entryDy=0;strokeWidth=2;" edge="1" parent="1" source="F3seQY0APc_oTYDWwXX8-7" target="F3seQY0APc_oTYDWwXX8-75">
          <mxGeometry relative="1" as="geometry">
            <mxPoint x="100.39339828220204" y="203.39339828220204" as="targetPoint" />
          </mxGeometry>
        </mxCell>
        <mxCell id="F3seQY0APc_oTYDWwXX8-16" value="" style="rounded=0;whiteSpace=wrap;html=1;fillColor=light-dark(#dcdee0, #121212);container=0;rotation=90;" vertex="1" parent="1">
          <mxGeometry x="81" y="290" width="40" height="46" as="geometry" />
        </mxCell>
        <mxCell id="F3seQY0APc_oTYDWwXX8-17" value="" style="triangle;whiteSpace=wrap;html=1;strokeWidth=1;fillColor=light-dark(#f9fafb, #1d293b);strokeColor=#000000;fontFamily=Times New Roman;container=0;rotation=90;" vertex="1" parent="1">
          <mxGeometry x="84" y="293" width="10" height="10" as="geometry" />
        </mxCell>
        <mxCell id="F3seQY0APc_oTYDWwXX8-20" style="rounded=0;orthogonalLoop=1;jettySize=auto;html=1;exitX=1;exitY=0.25;exitDx=0;exitDy=0;entryX=0;entryY=0;entryDx=0;entryDy=0;strokeWidth=2;" edge="1" parent="1" source="F3seQY0APc_oTYDWwXX8-21" target="F3seQY0APc_oTYDWwXX8-28">
          <mxGeometry relative="1" as="geometry" />
        </mxCell>
        <mxCell id="F3seQY0APc_oTYDWwXX8-21" value="" style="rounded=0;whiteSpace=wrap;html=1;fillColor=light-dark(#dcdee0, #121212);container=0;rotation=90;" vertex="1" parent="1">
          <mxGeometry x="860" y="320" width="40" height="46" as="geometry" />
        </mxCell>
        <mxCell id="F3seQY0APc_oTYDWwXX8-22" value="" style="triangle;whiteSpace=wrap;html=1;strokeWidth=1;fillColor=light-dark(#f9fafb, #1d293b);strokeColor=#000000;fontFamily=Times New Roman;container=0;rotation=90;" vertex="1" parent="1">
          <mxGeometry x="859" y="323" width="10" height="10" as="geometry" />
        </mxCell>
        <mxCell id="F3seQY0APc_oTYDWwXX8-23" value="" style="rounded=0;whiteSpace=wrap;html=1;fillColor=light-dark(#dcdee0, #121212);container=0;rotation=90;" vertex="1" parent="1">
          <mxGeometry x="780" y="320" width="40" height="46" as="geometry" />
        </mxCell>
        <mxCell id="F3seQY0APc_oTYDWwXX8-24" value="" style="triangle;whiteSpace=wrap;html=1;strokeWidth=1;fillColor=light-dark(#f9fafb, #1d293b);strokeColor=#000000;fontFamily=Times New Roman;container=0;rotation=90;" vertex="1" parent="1">
          <mxGeometry x="779" y="323" width="10" height="10" as="geometry" />
        </mxCell>
        <mxCell id="F3seQY0APc_oTYDWwXX8-25" value="" style="rounded=0;whiteSpace=wrap;html=1;fillColor=light-dark(#dcdee0, #121212);container=0;rotation=90;" vertex="1" parent="1">
          <mxGeometry x="675" y="320" width="40" height="46" as="geometry" />
        </mxCell>
        <mxCell id="F3seQY0APc_oTYDWwXX8-26" value="" style="triangle;whiteSpace=wrap;html=1;strokeWidth=1;fillColor=light-dark(#f9fafb, #1d293b);strokeColor=#000000;fontFamily=Times New Roman;container=0;rotation=90;" vertex="1" parent="1">
          <mxGeometry x="674" y="323" width="10" height="10" as="geometry" />
        </mxCell>
        <mxCell id="F3seQY0APc_oTYDWwXX8-27" style="rounded=0;orthogonalLoop=1;jettySize=auto;html=1;entryX=0;entryY=0.25;entryDx=0;entryDy=0;strokeWidth=2;" edge="1" parent="1" source="F3seQY0APc_oTYDWwXX8-28" target="F3seQY0APc_oTYDWwXX8-36">
          <mxGeometry relative="1" as="geometry">
            <mxPoint x="803" y="429" as="targetPoint" />
          </mxGeometry>
        </mxCell>
        <mxCell id="F3seQY0APc_oTYDWwXX8-28" value="" style="shape=orEllipse;perimeter=ellipsePerimeter;whiteSpace=wrap;html=1;backgroundOutline=1;rotation=90;" vertex="1" parent="1">
          <mxGeometry x="827" y="393" width="30" height="30" as="geometry" />
        </mxCell>
        <mxCell id="F3seQY0APc_oTYDWwXX8-29" style="rounded=0;orthogonalLoop=1;jettySize=auto;html=1;exitX=1;exitY=0.25;exitDx=0;exitDy=0;entryX=0.037;entryY=0.689;entryDx=0;entryDy=0;entryPerimeter=0;strokeWidth=2;" edge="1" parent="1" source="F3seQY0APc_oTYDWwXX8-23" target="F3seQY0APc_oTYDWwXX8-28">
          <mxGeometry relative="1" as="geometry" />
        </mxCell>
        <mxCell id="F3seQY0APc_oTYDWwXX8-30" style="edgeStyle=orthogonalEdgeStyle;rounded=0;orthogonalLoop=1;jettySize=auto;html=1;entryX=0;entryY=0.25;entryDx=0;entryDy=0;strokeWidth=2;" edge="1" parent="1" source="F3seQY0APc_oTYDWwXX8-31" target="F3seQY0APc_oTYDWwXX8-33">
          <mxGeometry relative="1" as="geometry">
            <mxPoint x="771" y="569" as="targetPoint" />
          </mxGeometry>
        </mxCell>
        <mxCell id="F3seQY0APc_oTYDWwXX8-31" value="" style="shape=orEllipse;perimeter=ellipsePerimeter;whiteSpace=wrap;html=1;backgroundOutline=1;rotation=90;" vertex="1" parent="1">
          <mxGeometry x="757" y="509" width="30" height="30" as="geometry" />
        </mxCell>
        <mxCell id="F3seQY0APc_oTYDWwXX8-32" style="rounded=0;orthogonalLoop=1;jettySize=auto;html=1;exitX=1;exitY=0.25;exitDx=0;exitDy=0;entryX=0;entryY=0.25;entryDx=0;entryDy=0;strokeWidth=2;" edge="1" parent="1" source="F3seQY0APc_oTYDWwXX8-25" target="F3seQY0APc_oTYDWwXX8-39">
          <mxGeometry relative="1" as="geometry">
            <mxPoint x="763" y="429" as="targetPoint" />
          </mxGeometry>
        </mxCell>
        <mxCell id="F3seQY0APc_oTYDWwXX8-33" value="" style="rounded=0;whiteSpace=wrap;html=1;fillColor=light-dark(#dcdee0, #121212);container=0;rotation=90;" vertex="1" parent="1">
          <mxGeometry x="740" y="563" width="40" height="46" as="geometry" />
        </mxCell>
        <mxCell id="F3seQY0APc_oTYDWwXX8-34" value="" style="triangle;whiteSpace=wrap;html=1;strokeWidth=1;fillColor=light-dark(#f9fafb, #1d293b);strokeColor=#000000;fontFamily=Times New Roman;container=0;rotation=90;" vertex="1" parent="1">
          <mxGeometry x="743" y="566" width="10" height="10" as="geometry" />
        </mxCell>
        <mxCell id="F3seQY0APc_oTYDWwXX8-35" style="rounded=0;orthogonalLoop=1;jettySize=auto;html=1;exitX=1;exitY=0.25;exitDx=0;exitDy=0;entryX=0;entryY=0;entryDx=0;entryDy=0;strokeWidth=2;" edge="1" parent="1" source="F3seQY0APc_oTYDWwXX8-36" target="F3seQY0APc_oTYDWwXX8-31">
          <mxGeometry relative="1" as="geometry" />
        </mxCell>
        <mxCell id="F3seQY0APc_oTYDWwXX8-36" value="" style="rounded=0;whiteSpace=wrap;html=1;fillColor=light-dark(#83c2fd, #121212);container=0;rotation=90;" vertex="1" parent="1">
          <mxGeometry x="780" y="436" width="40" height="46" as="geometry" />
        </mxCell>
        <mxCell id="F3seQY0APc_oTYDWwXX8-37" value="" style="triangle;whiteSpace=wrap;html=1;strokeWidth=1;fillColor=light-dark(#f9fafb, #1d293b);strokeColor=#000000;fontFamily=Times New Roman;container=0;rotation=90;" vertex="1" parent="1">
          <mxGeometry x="783" y="439" width="10" height="10" as="geometry" />
        </mxCell>
        <mxCell id="F3seQY0APc_oTYDWwXX8-38" style="rounded=0;orthogonalLoop=1;jettySize=auto;html=1;exitX=1;exitY=0.25;exitDx=0;exitDy=0;entryX=0;entryY=1;entryDx=0;entryDy=0;strokeWidth=2;" edge="1" parent="1" source="F3seQY0APc_oTYDWwXX8-39" target="F3seQY0APc_oTYDWwXX8-31">
          <mxGeometry relative="1" as="geometry" />
        </mxCell>
        <mxCell id="F3seQY0APc_oTYDWwXX8-39" value="" style="rounded=0;whiteSpace=wrap;html=1;fillColor=light-dark(#83c2fd, #121212);container=0;rotation=90;" vertex="1" parent="1">
          <mxGeometry x="716" y="436" width="40" height="46" as="geometry" />
        </mxCell>
        <mxCell id="F3seQY0APc_oTYDWwXX8-40" value="" style="triangle;whiteSpace=wrap;html=1;strokeWidth=1;fillColor=light-dark(#f9fafb, #1d293b);strokeColor=#000000;fontFamily=Times New Roman;container=0;rotation=90;" vertex="1" parent="1">
          <mxGeometry x="719" y="439" width="10" height="10" as="geometry" />
        </mxCell>
        <mxCell id="F3seQY0APc_oTYDWwXX8-41" value="&lt;font style=&quot;font-size: 18px;&quot; face=&quot;Helvetica&quot;&gt;&lt;b style=&quot;&quot;&gt;&lt;i&gt;Backward Retiming&lt;/i&gt;&lt;/b&gt;&lt;/font&gt;" style="text;html=1;align=center;verticalAlign=middle;whiteSpace=wrap;rounded=0;" vertex="1" parent="1">
          <mxGeometry x="501" y="531" width="183" height="30" as="geometry" />
        </mxCell>
        <mxCell id="F3seQY0APc_oTYDWwXX8-42" value="&lt;font style=&quot;font-size: 20px;&quot; face=&quot;Helvetica&quot;&gt;Original Circuit&lt;/font&gt;" style="text;html=1;align=center;verticalAlign=middle;whiteSpace=wrap;rounded=0;" vertex="1" parent="1">
          <mxGeometry x="14" y="336" width="183" height="30" as="geometry" />
        </mxCell>
        <mxCell id="F3seQY0APc_oTYDWwXX8-43" value="&lt;font style=&quot;font-size: 20px;&quot; face=&quot;Helvetica&quot;&gt;Retimed Circuit&lt;/font&gt;" style="text;html=1;align=center;verticalAlign=middle;whiteSpace=wrap;rounded=0;" vertex="1" parent="1">
          <mxGeometry x="677" y="609" width="183" height="30" as="geometry" />
        </mxCell>
        <mxCell id="F3seQY0APc_oTYDWwXX8-52" style="rounded=0;orthogonalLoop=1;jettySize=auto;html=1;exitX=1;exitY=0.25;exitDx=0;exitDy=0;entryX=0.5;entryY=0;entryDx=0;entryDy=0;strokeWidth=2;" edge="1" parent="1" source="F3seQY0APc_oTYDWwXX8-53" target="F3seQY0APc_oTYDWwXX8-70">
          <mxGeometry relative="1" as="geometry">
            <mxPoint x="151.85660171777886" y="15.393398282221142" as="targetPoint" />
          </mxGeometry>
        </mxCell>
        <mxCell id="F3seQY0APc_oTYDWwXX8-53" value="" style="rounded=0;whiteSpace=wrap;html=1;fillColor=light-dark(#dcdee0, #121212);container=0;rotation=90;" vertex="1" parent="1">
          <mxGeometry x="117.25" y="-52" width="40" height="46" as="geometry" />
        </mxCell>
        <mxCell id="F3seQY0APc_oTYDWwXX8-54" value="" style="triangle;whiteSpace=wrap;html=1;strokeWidth=1;fillColor=light-dark(#f9fafb, #1d293b);strokeColor=#000000;fontFamily=Times New Roman;container=0;rotation=90;" vertex="1" parent="1">
          <mxGeometry x="116.25" y="-49" width="10" height="10" as="geometry" />
        </mxCell>
        <mxCell id="F3seQY0APc_oTYDWwXX8-66" style="rounded=0;orthogonalLoop=1;jettySize=auto;html=1;exitX=0.5;exitY=1;exitDx=0;exitDy=0;entryX=0;entryY=0.25;entryDx=0;entryDy=0;strokeWidth=2;" edge="1" parent="1" source="F3seQY0APc_oTYDWwXX8-70" target="F3seQY0APc_oTYDWwXX8-5">
          <mxGeometry relative="1" as="geometry">
            <mxPoint x="114.8566017177784" y="18.60660171777863" as="sourcePoint" />
          </mxGeometry>
        </mxCell>
        <mxCell id="F3seQY0APc_oTYDWwXX8-59" style="rounded=0;orthogonalLoop=1;jettySize=auto;html=1;exitX=1;exitY=0.25;exitDx=0;exitDy=0;entryX=0.5;entryY=0;entryDx=0;entryDy=0;strokeWidth=2;" edge="1" parent="1" source="F3seQY0APc_oTYDWwXX8-60" target="F3seQY0APc_oTYDWwXX8-69">
          <mxGeometry relative="1" as="geometry">
            <mxPoint x="226.75" y="14" as="targetPoint" />
          </mxGeometry>
        </mxCell>
        <mxCell id="F3seQY0APc_oTYDWwXX8-60" value="" style="rounded=0;whiteSpace=wrap;html=1;fillColor=light-dark(#dcdee0, #121212);container=0;rotation=90;" vertex="1" parent="1">
          <mxGeometry x="197.25" y="-52" width="40" height="46" as="geometry" />
        </mxCell>
        <mxCell id="F3seQY0APc_oTYDWwXX8-61" value="" style="triangle;whiteSpace=wrap;html=1;strokeWidth=1;fillColor=light-dark(#f9fafb, #1d293b);strokeColor=#000000;fontFamily=Times New Roman;container=0;rotation=90;" vertex="1" parent="1">
          <mxGeometry x="196.25" y="-49" width="10" height="10" as="geometry" />
        </mxCell>
        <mxCell id="F3seQY0APc_oTYDWwXX8-68" style="rounded=0;orthogonalLoop=1;jettySize=auto;html=1;entryX=0;entryY=0.25;entryDx=0;entryDy=0;strokeWidth=2;exitX=0.5;exitY=1;exitDx=0;exitDy=0;" edge="1" parent="1" source="F3seQY0APc_oTYDWwXX8-69" target="F3seQY0APc_oTYDWwXX8-3">
          <mxGeometry relative="1" as="geometry">
            <mxPoint x="240.25" y="40" as="sourcePoint" />
          </mxGeometry>
        </mxCell>
        <mxCell id="F3seQY0APc_oTYDWwXX8-69" value="&lt;font style=&quot;font-size: 18px;&quot;&gt;Gate&lt;/font&gt;" style="rounded=1;whiteSpace=wrap;html=1;" vertex="1" parent="1">
          <mxGeometry x="200.25" y="14" width="58" height="31" as="geometry" />
        </mxCell>
        <mxCell id="F3seQY0APc_oTYDWwXX8-70" value="&lt;font style=&quot;font-size: 18px;&quot;&gt;Gate&lt;/font&gt;" style="rounded=1;whiteSpace=wrap;html=1;" vertex="1" parent="1">
          <mxGeometry x="119.25" y="11" width="58" height="31" as="geometry" />
        </mxCell>
        <mxCell id="F3seQY0APc_oTYDWwXX8-74" style="edgeStyle=orthogonalEdgeStyle;rounded=0;orthogonalLoop=1;jettySize=auto;html=1;entryX=0.5;entryY=0;entryDx=0;entryDy=0;strokeWidth=2;" edge="1" parent="1" source="F3seQY0APc_oTYDWwXX8-72" target="F3seQY0APc_oTYDWwXX8-73">
          <mxGeometry relative="1" as="geometry" />
        </mxCell>
        <mxCell id="F3seQY0APc_oTYDWwXX8-72" value="&lt;font style=&quot;font-size: 18px;&quot;&gt;Gate&lt;/font&gt;" style="rounded=1;whiteSpace=wrap;html=1;" vertex="1" parent="1">
          <mxGeometry x="160.25" y="130" width="58" height="31" as="geometry" />
        </mxCell>
        <mxCell id="F3seQY0APc_oTYDWwXX8-76" style="rounded=0;orthogonalLoop=1;jettySize=auto;html=1;entryX=0.75;entryY=0;entryDx=0;entryDy=0;" edge="1" parent="1" source="F3seQY0APc_oTYDWwXX8-73" target="F3seQY0APc_oTYDWwXX8-75">
          <mxGeometry relative="1" as="geometry" />
        </mxCell>
        <mxCell id="F3seQY0APc_oTYDWwXX8-73" value="&lt;font style=&quot;font-size: 18px;&quot;&gt;Gate&lt;/font&gt;" style="rounded=1;whiteSpace=wrap;html=1;" vertex="1" parent="1">
          <mxGeometry x="160" y="198" width="58" height="31" as="geometry" />
        </mxCell>
        <mxCell id="F3seQY0APc_oTYDWwXX8-75" value="&lt;font style=&quot;font-size: 18px;&quot;&gt;Gate&lt;/font&gt;" style="rounded=1;whiteSpace=wrap;html=1;" vertex="1" parent="1">
          <mxGeometry x="83" y="242" width="58" height="31" as="geometry" />
        </mxCell>
        <mxCell id="F3seQY0APc_oTYDWwXX8-78" style="rounded=0;orthogonalLoop=1;jettySize=auto;html=1;entryX=0.75;entryY=0;entryDx=0;entryDy=0;strokeWidth=2;exitX=0.5;exitY=1;exitDx=0;exitDy=0;" edge="1" parent="1" source="F3seQY0APc_oTYDWwXX8-99" target="F3seQY0APc_oTYDWwXX8-102">
          <mxGeometry relative="1" as="geometry">
            <mxPoint x="455.8566017177984" y="140.39339828220182" as="targetPoint" />
            <mxPoint x="495" y="106" as="sourcePoint" />
          </mxGeometry>
        </mxCell>
        <mxCell id="F3seQY0APc_oTYDWwXX8-83" value="" style="rounded=0;whiteSpace=wrap;html=1;fillColor=light-dark(#dcdee0, #121212);container=0;rotation=90;" vertex="1" parent="1">
          <mxGeometry x="307" y="-48" width="40" height="46" as="geometry" />
        </mxCell>
        <mxCell id="F3seQY0APc_oTYDWwXX8-84" value="" style="triangle;whiteSpace=wrap;html=1;strokeWidth=1;fillColor=light-dark(#f9fafb, #1d293b);strokeColor=#000000;fontFamily=Times New Roman;container=0;rotation=90;" vertex="1" parent="1">
          <mxGeometry x="306" y="-44" width="10" height="10" as="geometry" />
        </mxCell>
        <mxCell id="F3seQY0APc_oTYDWwXX8-85" style="rounded=0;orthogonalLoop=1;jettySize=auto;html=1;exitX=0.5;exitY=1;exitDx=0;exitDy=0;entryX=0.25;entryY=0;entryDx=0;entryDy=0;strokeWidth=2;" edge="1" parent="1" source="F3seQY0APc_oTYDWwXX8-100" target="F3seQY0APc_oTYDWwXX8-102">
          <mxGeometry relative="1" as="geometry">
            <mxPoint x="439.5799999999999" y="137.1099999999999" as="targetPoint" />
            <mxPoint x="414.7500000000002" y="106" as="sourcePoint" />
          </mxGeometry>
        </mxCell>
        <mxCell id="F3seQY0APc_oTYDWwXX8-86" style="edgeStyle=orthogonalEdgeStyle;rounded=0;orthogonalLoop=1;jettySize=auto;html=1;entryX=0;entryY=0.25;entryDx=0;entryDy=0;strokeWidth=2;exitX=0.5;exitY=1;exitDx=0;exitDy=0;" edge="1" parent="1" source="F3seQY0APc_oTYDWwXX8-105" target="F3seQY0APc_oTYDWwXX8-88">
          <mxGeometry relative="1" as="geometry">
            <mxPoint x="379" y="300" as="targetPoint" />
            <mxPoint x="379" y="270" as="sourcePoint" />
          </mxGeometry>
        </mxCell>
        <mxCell id="F3seQY0APc_oTYDWwXX8-87" style="rounded=0;orthogonalLoop=1;jettySize=auto;html=1;exitX=1;exitY=0.25;exitDx=0;exitDy=0;entryX=0.25;entryY=0;entryDx=0;entryDy=0;strokeWidth=2;" edge="1" parent="1" source="F3seQY0APc_oTYDWwXX8-83" target="F3seQY0APc_oTYDWwXX8-105">
          <mxGeometry relative="1" as="geometry">
            <mxPoint x="366.39339828220204" y="207.39339828220204" as="targetPoint" />
          </mxGeometry>
        </mxCell>
        <mxCell id="F3seQY0APc_oTYDWwXX8-88" value="" style="rounded=0;whiteSpace=wrap;html=1;fillColor=light-dark(#dcdee0, #121212);container=0;rotation=90;" vertex="1" parent="1">
          <mxGeometry x="347" y="294" width="40" height="46" as="geometry" />
        </mxCell>
        <mxCell id="F3seQY0APc_oTYDWwXX8-89" value="" style="triangle;whiteSpace=wrap;html=1;strokeWidth=1;fillColor=light-dark(#f9fafb, #1d293b);strokeColor=#000000;fontFamily=Times New Roman;container=0;rotation=90;" vertex="1" parent="1">
          <mxGeometry x="350" y="297" width="10" height="10" as="geometry" />
        </mxCell>
        <mxCell id="F3seQY0APc_oTYDWwXX8-90" value="&lt;font style=&quot;font-size: 20px;&quot; face=&quot;Helvetica&quot;&gt;Original Circuit&lt;/font&gt;" style="text;html=1;align=center;verticalAlign=middle;whiteSpace=wrap;rounded=0;" vertex="1" parent="1">
          <mxGeometry x="280" y="340" width="183" height="30" as="geometry" />
        </mxCell>
        <mxCell id="F3seQY0APc_oTYDWwXX8-91" style="rounded=0;orthogonalLoop=1;jettySize=auto;html=1;exitX=1;exitY=0.25;exitDx=0;exitDy=0;entryX=0.5;entryY=0;entryDx=0;entryDy=0;strokeWidth=2;" edge="1" parent="1" source="F3seQY0APc_oTYDWwXX8-92" target="F3seQY0APc_oTYDWwXX8-100">
          <mxGeometry relative="1" as="geometry">
            <mxPoint x="417.85660171777886" y="19.393398282221142" as="targetPoint" />
          </mxGeometry>
        </mxCell>
        <mxCell id="F3seQY0APc_oTYDWwXX8-92" value="" style="rounded=0;whiteSpace=wrap;html=1;fillColor=light-dark(#dcdee0, #121212);container=0;rotation=90;" vertex="1" parent="1">
          <mxGeometry x="383.25" y="-48" width="40" height="46" as="geometry" />
        </mxCell>
        <mxCell id="F3seQY0APc_oTYDWwXX8-93" value="" style="triangle;whiteSpace=wrap;html=1;strokeWidth=1;fillColor=light-dark(#f9fafb, #1d293b);strokeColor=#000000;fontFamily=Times New Roman;container=0;rotation=90;" vertex="1" parent="1">
          <mxGeometry x="382.25" y="-45" width="10" height="10" as="geometry" />
        </mxCell>
        <mxCell id="F3seQY0APc_oTYDWwXX8-95" style="rounded=0;orthogonalLoop=1;jettySize=auto;html=1;exitX=1;exitY=0.25;exitDx=0;exitDy=0;entryX=0.5;entryY=0;entryDx=0;entryDy=0;strokeWidth=2;" edge="1" parent="1" source="F3seQY0APc_oTYDWwXX8-96" target="F3seQY0APc_oTYDWwXX8-99">
          <mxGeometry relative="1" as="geometry">
            <mxPoint x="492.75" y="18" as="targetPoint" />
          </mxGeometry>
        </mxCell>
        <mxCell id="F3seQY0APc_oTYDWwXX8-96" value="" style="rounded=0;whiteSpace=wrap;html=1;fillColor=light-dark(#dcdee0, #121212);container=0;rotation=90;" vertex="1" parent="1">
          <mxGeometry x="463.25" y="-48" width="40" height="46" as="geometry" />
        </mxCell>
        <mxCell id="F3seQY0APc_oTYDWwXX8-97" value="" style="triangle;whiteSpace=wrap;html=1;strokeWidth=1;fillColor=light-dark(#f9fafb, #1d293b);strokeColor=#000000;fontFamily=Times New Roman;container=0;rotation=90;" vertex="1" parent="1">
          <mxGeometry x="462.25" y="-45" width="10" height="10" as="geometry" />
        </mxCell>
        <mxCell id="F3seQY0APc_oTYDWwXX8-99" value="&lt;font style=&quot;font-size: 18px;&quot;&gt;Gate&lt;/font&gt;" style="rounded=1;whiteSpace=wrap;html=1;" vertex="1" parent="1">
          <mxGeometry x="466.25" y="18" width="58" height="31" as="geometry" />
        </mxCell>
        <mxCell id="F3seQY0APc_oTYDWwXX8-100" value="&lt;font style=&quot;font-size: 18px;&quot;&gt;Gate&lt;/font&gt;" style="rounded=1;whiteSpace=wrap;html=1;" vertex="1" parent="1">
          <mxGeometry x="385.25" y="15" width="58" height="31" as="geometry" />
        </mxCell>
        <mxCell id="F3seQY0APc_oTYDWwXX8-108" style="rounded=0;orthogonalLoop=1;jettySize=auto;html=1;entryX=0;entryY=0.25;entryDx=0;entryDy=0;strokeWidth=2;" edge="1" parent="1" source="F3seQY0APc_oTYDWwXX8-102" target="F3seQY0APc_oTYDWwXX8-106">
          <mxGeometry relative="1" as="geometry" />
        </mxCell>
        <mxCell id="F3seQY0APc_oTYDWwXX8-102" value="&lt;font style=&quot;font-size: 18px;&quot;&gt;Gate&lt;/font&gt;" style="rounded=1;whiteSpace=wrap;html=1;" vertex="1" parent="1">
          <mxGeometry x="427" y="74" width="58" height="31" as="geometry" />
        </mxCell>
        <mxCell id="F3seQY0APc_oTYDWwXX8-103" style="rounded=0;orthogonalLoop=1;jettySize=auto;html=1;entryX=0.75;entryY=0;entryDx=0;entryDy=0;" edge="1" parent="1" source="F3seQY0APc_oTYDWwXX8-104" target="F3seQY0APc_oTYDWwXX8-105">
          <mxGeometry relative="1" as="geometry" />
        </mxCell>
        <mxCell id="F3seQY0APc_oTYDWwXX8-104" value="&lt;font style=&quot;font-size: 18px;&quot;&gt;Gate&lt;/font&gt;" style="rounded=1;whiteSpace=wrap;html=1;" vertex="1" parent="1">
          <mxGeometry x="426" y="202" width="58" height="31" as="geometry" />
        </mxCell>
        <mxCell id="F3seQY0APc_oTYDWwXX8-105" value="&lt;font style=&quot;font-size: 18px;&quot;&gt;Gate&lt;/font&gt;" style="rounded=1;whiteSpace=wrap;html=1;" vertex="1" parent="1">
          <mxGeometry x="349" y="246" width="58" height="31" as="geometry" />
        </mxCell>
        <mxCell id="F3seQY0APc_oTYDWwXX8-109" style="rounded=0;orthogonalLoop=1;jettySize=auto;html=1;exitX=1;exitY=0.25;exitDx=0;exitDy=0;entryX=0.5;entryY=0;entryDx=0;entryDy=0;strokeWidth=2;" edge="1" parent="1" source="F3seQY0APc_oTYDWwXX8-106" target="F3seQY0APc_oTYDWwXX8-104">
          <mxGeometry relative="1" as="geometry">
            <mxPoint x="460" y="200" as="targetPoint" />
          </mxGeometry>
        </mxCell>
        <mxCell id="F3seQY0APc_oTYDWwXX8-106" value="" style="rounded=0;whiteSpace=wrap;html=1;fillColor=light-dark(#83c2fd, #121212);container=0;rotation=90;" vertex="1" parent="1">
          <mxGeometry x="424.25" y="129" width="40" height="46" as="geometry" />
        </mxCell>
        <mxCell id="F3seQY0APc_oTYDWwXX8-107" value="" style="triangle;whiteSpace=wrap;html=1;strokeWidth=1;fillColor=light-dark(#f9fafb, #1d293b);strokeColor=#000000;fontFamily=Times New Roman;container=0;rotation=90;" vertex="1" parent="1">
          <mxGeometry x="423.25" y="132" width="10" height="10" as="geometry" />
        </mxCell>
      </root>
    </mxGraphModel>
  </diagram>
</mxfile>
